# xmcd CD database file
#
# Track frame offsets:
#	150
#	21450
#	37875
#	55129
#	75329
#	104354
#	126788
#	145688
#	168114
#	189499
#	211616
#	232771
#
# Disc length: 3383 seconds
#
# Revision: 0
# Processed by: cddbd v1.5.2PL0 Copyright (c) Steve Scherf et al.
# Submitted via: CDex 1.79
#
DISCID=8a0d350c
DTITLE=Various Performers - Venus Jazz Cafe 2013 Special Blend [CD2]
DYEAR=2013
DGENRE=Jazz
TTITLE0=Our Love Is Here To Stay - Simone
TTITLE1=Michelle - Romantic Jazz Trio
TTITLE2=All The Things You Are- Alexis Cole
TTITLE3=Lover - Derek Smith Trio
TTITLE4=Where Or When - Aaron Heick
TTITLE5=Shadow Of Your Smile - Dan Nimmer Trio
TTITLE6=April Child - Adela Dalto
TTITLE7=All This And Heaven Too - Eddie Higgins Quartet featuring Scott Hamilton
TTITLE8=Lucidez - Laura Ann
TTITLE9=Walkin' My Baby Back Home - Dezron Dauglas Trio
TTITLE10=Biscottes - Nicolas Montier and Saxomania
TTITLE11=Noa's Dream - Tessa Souter
EXTD=YEAR: 2013
EXTT0=
EXTT1=
EXTT2=
EXTT3=
EXTT4=
EXTT5=
EXTT6=
EXTT7=
EXTT8=
EXTT9=
EXTT10=
EXTT11=
PLAYORDER=
